<svg viewBox="0 0 170 170" width="170" height="170" xmlns="http://www.w3.org/2000/svg">
  <!-- Radial spokes from top-right corner -->
  <line x1="170" y1="0" x2="0"   y2="0"   stroke="#cc0000" stroke-width="1.8" opacity="0.9"/>
  <line x1="170" y1="0" x2="170" y2="170" stroke="#cc0000" stroke-width="1.8" opacity="0.9"/>
  <line x1="170" y1="0" x2="32"  y2="92"  stroke="#cc0000" stroke-width="1.2" opacity="0.8"/>
  <line x1="170" y1="0" x2="78"  y2="138" stroke="#cc0000" stroke-width="1.2" opacity="0.8"/>
  <line x1="170" y1="0" x2="0"   y2="54"  stroke="#cc0000" stroke-width="0.9" opacity="0.6"/>
  <line x1="170" y1="0" x2="116" y2="170" stroke="#cc0000" stroke-width="0.9" opacity="0.6"/>
  <line x1="170" y1="0" x2="0"   y2="110" stroke="#cc0000" stroke-width="0.7" opacity="0.45"/>
  <line x1="170" y1="0" x2="60"  y2="170" stroke="#cc0000" stroke-width="0.7" opacity="0.45"/>
  <!-- Concentric arc threads -->
  <path d="M 134 0 Q 145 25 170 36"   fill="none" stroke="#cc0000" stroke-width="1.1" opacity="0.95"/>
  <path d="M 98  0 Q 119 51 170 72"   fill="none" stroke="#cc0000" stroke-width="1.0" opacity="0.85"/>
  <path d="M 62  0 Q 94  76 170 108"  fill="none" stroke="#cc0000" stroke-width="0.9" opacity="0.70"/>
  <path d="M 26  0 Q 68  102 170 144" fill="none" stroke="#cc0000" stroke-width="0.8" opacity="0.55"/>
  <path d="M 0   0 Q 46  124 170 170" fill="none" stroke="#cc0000" stroke-width="0.7" opacity="0.38"/>
  <!-- Spider at corner -->
  <ellipse cx="163" cy="5"  rx="5" ry="4" fill="#cc0000"/>
  <ellipse cx="163" cy="12" rx="4.5" ry="4" fill="#cc0000"/>
  <line x1="168" y1="4"  x2="173" y2="0"  stroke="#cc0000" stroke-width="1.2" stroke-linecap="round"/>
  <line x1="168" y1="6"  x2="173" y2="6"  stroke="#cc0000" stroke-width="1.2" stroke-linecap="round"/>
  <line x1="168" y1="12" x2="173" y2="12" stroke="#cc0000" stroke-width="1.2" stroke-linecap="round"/>
  <line x1="168" y1="14" x2="173" y2="18" stroke="#cc0000" stroke-width="1.2" stroke-linecap="round"/>
  <line x1="158" y1="4"  x2="153" y2="0"  stroke="#cc0000" stroke-width="1.2" stroke-linecap="round"/>
  <line x1="158" y1="6"  x2="153" y2="6"  stroke="#cc0000" stroke-width="1.2" stroke-linecap="round"/>
  <line x1="158" y1="12" x2="153" y2="12" stroke="#cc0000" stroke-width="1.2" stroke-linecap="round"/>
  <line x1="158" y1="14" x2="153" y2="18" stroke="#cc0000" stroke-width="1.2" stroke-linecap="round"/>
</svg>
